G04 (created by PCBNEW (2013-07-07 BZR 4022)-stable) date 26/01/2015 11:31:51 AM*
%MOIN*%
G04 Gerber Fmt 3.4, Leading zero omitted, Abs format*
%FSLAX34Y34*%
G01*
G70*
G90*
G04 APERTURE LIST*
%ADD10C,0.00590551*%
%ADD11R,0.055X0.055*%
%ADD12C,0.055*%
%ADD13C,0.035*%
%ADD14C,0.01*%
G04 APERTURE END LIST*
G54D10*
G54D11*
X8800Y-10300D03*
G54D12*
X8800Y-9300D03*
X8800Y-8300D03*
X8800Y-7300D03*
G54D11*
X8800Y-14300D03*
G54D12*
X8800Y-13300D03*
X8800Y-12300D03*
G54D13*
X9800Y-9300D03*
X9700Y-10800D03*
X12100Y-10900D03*
X12800Y-9300D03*
X12800Y-12800D03*
X13800Y-7300D03*
X13800Y-10300D03*
G54D14*
X8800Y-7300D02*
X9300Y-7800D01*
X9300Y-8800D02*
X9800Y-9300D01*
X9300Y-7800D02*
X9300Y-8800D01*
X12000Y-10800D02*
X9700Y-10800D01*
X12100Y-10900D02*
X12000Y-10800D01*
X12800Y-12800D02*
X12800Y-9300D01*
X13800Y-10300D02*
X13800Y-12400D01*
X11900Y-14300D02*
X8800Y-14300D01*
X13800Y-12400D02*
X11900Y-14300D01*
X13800Y-10300D02*
X13800Y-7300D01*
G54D10*
G36*
X14280Y-14780D02*
X9223Y-14780D01*
X9286Y-14716D01*
X9324Y-14624D01*
X9324Y-14600D01*
X11900Y-14600D01*
X11900Y-14599D01*
X12014Y-14577D01*
X12014Y-14577D01*
X12112Y-14512D01*
X14012Y-12612D01*
X14012Y-12612D01*
X14077Y-12514D01*
X14099Y-12400D01*
X14100Y-12400D01*
X14100Y-10601D01*
X14160Y-10541D01*
X14224Y-10384D01*
X14225Y-10215D01*
X14160Y-10059D01*
X14100Y-9998D01*
X14100Y-7601D01*
X14160Y-7541D01*
X14224Y-7384D01*
X14225Y-7215D01*
X14160Y-7059D01*
X14041Y-6939D01*
X13884Y-6875D01*
X13715Y-6874D01*
X13559Y-6939D01*
X13439Y-7058D01*
X13375Y-7215D01*
X13374Y-7384D01*
X13439Y-7540D01*
X13500Y-7601D01*
X13500Y-9998D01*
X13439Y-10058D01*
X13375Y-10215D01*
X13374Y-10384D01*
X13439Y-10540D01*
X13500Y-10601D01*
X13500Y-12275D01*
X13176Y-12598D01*
X13160Y-12559D01*
X13100Y-12498D01*
X13100Y-9601D01*
X13160Y-9541D01*
X13224Y-9384D01*
X13225Y-9215D01*
X13160Y-9059D01*
X13041Y-8939D01*
X12884Y-8875D01*
X12715Y-8874D01*
X12559Y-8939D01*
X12439Y-9058D01*
X12375Y-9215D01*
X12374Y-9384D01*
X12439Y-9540D01*
X12500Y-9601D01*
X12500Y-12498D01*
X12439Y-12558D01*
X12375Y-12715D01*
X12374Y-12884D01*
X12439Y-13040D01*
X12558Y-13160D01*
X12599Y-13176D01*
X11775Y-14000D01*
X9325Y-14000D01*
X9325Y-13975D01*
X9287Y-13883D01*
X9216Y-13813D01*
X9124Y-13775D01*
X9025Y-13774D01*
X9025Y-13774D01*
X9097Y-13745D01*
X9244Y-13597D01*
X9324Y-13404D01*
X9325Y-13196D01*
X9245Y-13003D01*
X9097Y-12855D01*
X8964Y-12799D01*
X9097Y-12745D01*
X9244Y-12597D01*
X9324Y-12404D01*
X9325Y-12196D01*
X9245Y-12003D01*
X9097Y-11855D01*
X8904Y-11775D01*
X8696Y-11774D01*
X8503Y-11854D01*
X8355Y-12002D01*
X8319Y-12087D01*
X8319Y-10723D01*
X8383Y-10786D01*
X8475Y-10824D01*
X8574Y-10825D01*
X9124Y-10825D01*
X9216Y-10787D01*
X9286Y-10716D01*
X9324Y-10624D01*
X9325Y-10525D01*
X9325Y-9975D01*
X9287Y-9883D01*
X9216Y-9813D01*
X9124Y-9775D01*
X9037Y-9774D01*
X9072Y-9760D01*
X9097Y-9667D01*
X8800Y-9370D01*
X8502Y-9667D01*
X8527Y-9760D01*
X8568Y-9774D01*
X8475Y-9774D01*
X8383Y-9812D01*
X8319Y-9876D01*
X8319Y-9525D01*
X8339Y-9572D01*
X8432Y-9597D01*
X8729Y-9300D01*
X8432Y-9002D01*
X8339Y-9027D01*
X8319Y-9083D01*
X8319Y-8525D01*
X8339Y-8572D01*
X8432Y-8597D01*
X8729Y-8300D01*
X8432Y-8002D01*
X8339Y-8027D01*
X8319Y-8083D01*
X8319Y-7512D01*
X8354Y-7597D01*
X8502Y-7744D01*
X8628Y-7797D01*
X8527Y-7839D01*
X8502Y-7932D01*
X8800Y-8229D01*
X8805Y-8223D01*
X8876Y-8294D01*
X8870Y-8300D01*
X8876Y-8305D01*
X8805Y-8376D01*
X8800Y-8370D01*
X8502Y-8667D01*
X8527Y-8760D01*
X8630Y-8796D01*
X8527Y-8839D01*
X8502Y-8932D01*
X8800Y-9229D01*
X8805Y-9223D01*
X8876Y-9294D01*
X8870Y-9300D01*
X9167Y-9597D01*
X9260Y-9572D01*
X9329Y-9375D01*
X9322Y-9247D01*
X9375Y-9299D01*
X9374Y-9384D01*
X9439Y-9540D01*
X9558Y-9660D01*
X9715Y-9724D01*
X9884Y-9725D01*
X10040Y-9660D01*
X10160Y-9541D01*
X10224Y-9384D01*
X10225Y-9215D01*
X10160Y-9059D01*
X10041Y-8939D01*
X9884Y-8875D01*
X9799Y-8874D01*
X9600Y-8675D01*
X9600Y-7800D01*
X9577Y-7685D01*
X9512Y-7587D01*
X9512Y-7587D01*
X9324Y-7400D01*
X9325Y-7196D01*
X9245Y-7003D01*
X9097Y-6855D01*
X9012Y-6819D01*
X14280Y-6819D01*
X14280Y-14780D01*
X14280Y-14780D01*
G37*
G54D14*
X14280Y-14780D02*
X9223Y-14780D01*
X9286Y-14716D01*
X9324Y-14624D01*
X9324Y-14600D01*
X11900Y-14600D01*
X11900Y-14599D01*
X12014Y-14577D01*
X12014Y-14577D01*
X12112Y-14512D01*
X14012Y-12612D01*
X14012Y-12612D01*
X14077Y-12514D01*
X14099Y-12400D01*
X14100Y-12400D01*
X14100Y-10601D01*
X14160Y-10541D01*
X14224Y-10384D01*
X14225Y-10215D01*
X14160Y-10059D01*
X14100Y-9998D01*
X14100Y-7601D01*
X14160Y-7541D01*
X14224Y-7384D01*
X14225Y-7215D01*
X14160Y-7059D01*
X14041Y-6939D01*
X13884Y-6875D01*
X13715Y-6874D01*
X13559Y-6939D01*
X13439Y-7058D01*
X13375Y-7215D01*
X13374Y-7384D01*
X13439Y-7540D01*
X13500Y-7601D01*
X13500Y-9998D01*
X13439Y-10058D01*
X13375Y-10215D01*
X13374Y-10384D01*
X13439Y-10540D01*
X13500Y-10601D01*
X13500Y-12275D01*
X13176Y-12598D01*
X13160Y-12559D01*
X13100Y-12498D01*
X13100Y-9601D01*
X13160Y-9541D01*
X13224Y-9384D01*
X13225Y-9215D01*
X13160Y-9059D01*
X13041Y-8939D01*
X12884Y-8875D01*
X12715Y-8874D01*
X12559Y-8939D01*
X12439Y-9058D01*
X12375Y-9215D01*
X12374Y-9384D01*
X12439Y-9540D01*
X12500Y-9601D01*
X12500Y-12498D01*
X12439Y-12558D01*
X12375Y-12715D01*
X12374Y-12884D01*
X12439Y-13040D01*
X12558Y-13160D01*
X12599Y-13176D01*
X11775Y-14000D01*
X9325Y-14000D01*
X9325Y-13975D01*
X9287Y-13883D01*
X9216Y-13813D01*
X9124Y-13775D01*
X9025Y-13774D01*
X9025Y-13774D01*
X9097Y-13745D01*
X9244Y-13597D01*
X9324Y-13404D01*
X9325Y-13196D01*
X9245Y-13003D01*
X9097Y-12855D01*
X8964Y-12799D01*
X9097Y-12745D01*
X9244Y-12597D01*
X9324Y-12404D01*
X9325Y-12196D01*
X9245Y-12003D01*
X9097Y-11855D01*
X8904Y-11775D01*
X8696Y-11774D01*
X8503Y-11854D01*
X8355Y-12002D01*
X8319Y-12087D01*
X8319Y-10723D01*
X8383Y-10786D01*
X8475Y-10824D01*
X8574Y-10825D01*
X9124Y-10825D01*
X9216Y-10787D01*
X9286Y-10716D01*
X9324Y-10624D01*
X9325Y-10525D01*
X9325Y-9975D01*
X9287Y-9883D01*
X9216Y-9813D01*
X9124Y-9775D01*
X9037Y-9774D01*
X9072Y-9760D01*
X9097Y-9667D01*
X8800Y-9370D01*
X8502Y-9667D01*
X8527Y-9760D01*
X8568Y-9774D01*
X8475Y-9774D01*
X8383Y-9812D01*
X8319Y-9876D01*
X8319Y-9525D01*
X8339Y-9572D01*
X8432Y-9597D01*
X8729Y-9300D01*
X8432Y-9002D01*
X8339Y-9027D01*
X8319Y-9083D01*
X8319Y-8525D01*
X8339Y-8572D01*
X8432Y-8597D01*
X8729Y-8300D01*
X8432Y-8002D01*
X8339Y-8027D01*
X8319Y-8083D01*
X8319Y-7512D01*
X8354Y-7597D01*
X8502Y-7744D01*
X8628Y-7797D01*
X8527Y-7839D01*
X8502Y-7932D01*
X8800Y-8229D01*
X8805Y-8223D01*
X8876Y-8294D01*
X8870Y-8300D01*
X8876Y-8305D01*
X8805Y-8376D01*
X8800Y-8370D01*
X8502Y-8667D01*
X8527Y-8760D01*
X8630Y-8796D01*
X8527Y-8839D01*
X8502Y-8932D01*
X8800Y-9229D01*
X8805Y-9223D01*
X8876Y-9294D01*
X8870Y-9300D01*
X9167Y-9597D01*
X9260Y-9572D01*
X9329Y-9375D01*
X9322Y-9247D01*
X9375Y-9299D01*
X9374Y-9384D01*
X9439Y-9540D01*
X9558Y-9660D01*
X9715Y-9724D01*
X9884Y-9725D01*
X10040Y-9660D01*
X10160Y-9541D01*
X10224Y-9384D01*
X10225Y-9215D01*
X10160Y-9059D01*
X10041Y-8939D01*
X9884Y-8875D01*
X9799Y-8874D01*
X9600Y-8675D01*
X9600Y-7800D01*
X9577Y-7685D01*
X9512Y-7587D01*
X9512Y-7587D01*
X9324Y-7400D01*
X9325Y-7196D01*
X9245Y-7003D01*
X9097Y-6855D01*
X9012Y-6819D01*
X14280Y-6819D01*
X14280Y-14780D01*
M02*
